<svg id="Layer_1" data-name="Layer 1" xmlns="http://www.w3.org/2000/svg" xmlns:xlink="http://www.w3.org/1999/xlink" viewBox="0 0 158.73 18.85"><defs><style>.cls-1{fill:url(#linear-gradient);}.cls-2{fill:url(#linear-gradient-2);}.cls-3{fill:url(#linear-gradient-3);}.cls-4{fill:url(#linear-gradient-4);}.cls-5{fill:#696969;}.cls-6{fill:#aaa;}</style><linearGradient id="linear-gradient" x1="24.78" y1="11.53" x2="0" y2="11.53" gradientUnits="userSpaceOnUse"><stop offset="0" stop-color="#ffd800"/><stop offset="0.17" stop-color="#f9bb02"/><stop offset="0.41" stop-color="#f29503"/><stop offset="0.64" stop-color="#ec7a05"/><stop offset="0.85" stop-color="#e96a06"/><stop offset="1" stop-color="#e86406"/></linearGradient><linearGradient id="linear-gradient-2" x1="24.78" y1="1.65" y2="1.65" xlink:href="#linear-gradient"/><linearGradient id="linear-gradient-3" x1="24.78" y1="3.29" y2="3.29" xlink:href="#linear-gradient"/><linearGradient id="linear-gradient-4" x1="24.78" y1="5.76" y2="5.76" xlink:href="#linear-gradient"/></defs><path class="cls-1" d="M24.78,12.35a.74.74,0,0,1-.74.74H21.49a1.58,1.58,0,0,1-.58-.11,1.55,1.55,0,0,1-1-1.45V8.23a.91.91,0,0,0-1.81,0v8.24a2.39,2.39,0,0,1-4.77,0V6.59a.91.91,0,0,0-1.82,0v8.23a2.48,2.48,0,0,1-.06.54,2.39,2.39,0,0,1-4.71-.54V10.7a.91.91,0,0,0-1.81,0v.82a1.64,1.64,0,0,1-.08.5,1.61,1.61,0,0,1-.4.63,1.58,1.58,0,0,1-1.09.44H.74A.74.74,0,0,1,0,12.36a.77.77,0,0,1,.2-.51h0a.75.75,0,0,1,.54-.23H3a.43.43,0,0,0,.43-.43V10.7a2.33,2.33,0,0,1,.47-1.42,2.38,2.38,0,0,1,4.3,1.42v4.12a.88.88,0,0,0,.29.66h0a.91.91,0,0,0,1.23,0h0a.88.88,0,0,0,.29-.66V6.59a2.39,2.39,0,1,1,4.78,0v9.88a.91.91,0,0,0,1.81,0V8.23a2.33,2.33,0,0,1,.06-.53,2.39,2.39,0,0,1,4.71.53v2.95a.43.43,0,0,0,.43.43H24a.74.74,0,0,1,.74.74Z"/><circle class="cls-2" cx="12.43" cy="1.65" r="1.65"/><circle class="cls-3" cx="19.02" cy="3.29" r="1.65"/><circle class="cls-4" cx="5.84" cy="5.76" r="1.65"/><path class="cls-5" d="M37.51,9.76a5.58,5.58,0,0,1-3.92,1.61,5.21,5.21,0,0,1-5.53-5.44A5.26,5.26,0,0,1,33.59.37,5.53,5.53,0,0,1,37.51,2l-.57.49A4.72,4.72,0,0,0,33.59,1.1a4.5,4.5,0,0,0-4.74,4.8,4.49,4.49,0,0,0,4.74,4.7A4.86,4.86,0,0,0,37,9.24Z"/><path class="cls-5" d="M38.8,7.47a3.86,3.86,0,1,1,7.72,0,3.86,3.86,0,1,1-7.72,0Zm7,0a3.12,3.12,0,1,0-6.24,0,3.12,3.12,0,1,0,6.24,0Z"/><path class="cls-5" d="M59.51,11.25V6.7a2.35,2.35,0,0,0-2.43-2.49,2.4,2.4,0,0,0-2.45,2.54v4.5h-.75V6.75a2.44,2.44,0,1,0-4.87,0v4.5h-.75V3.66H49l0,1.26A2.67,2.67,0,0,1,51.45,3.5a2.79,2.79,0,0,1,2.82,1.88A2.93,2.93,0,0,1,57.08,3.5a3.06,3.06,0,0,1,3.18,3.2v4.55Z"/><path class="cls-5" d="M73.63,11.25V6.7a2.34,2.34,0,0,0-2.42-2.49,2.4,2.4,0,0,0-2.45,2.54v4.5H68V6.75a2.44,2.44,0,1,0-4.87,0v4.5h-.76V3.66h.71V4.92A2.7,2.7,0,0,1,65.58,3.5a2.78,2.78,0,0,1,2.81,1.88A2.94,2.94,0,0,1,71.21,3.5a3.06,3.06,0,0,1,3.18,3.2v4.55Z"/><path class="cls-5" d="M82.3,11.25V9.88a3,3,0,0,1-2.7,1.49A3.17,3.17,0,0,1,76.17,8V3.64h.76V8a2.42,2.42,0,0,0,2.7,2.62,2.63,2.63,0,0,0,2.66-2.76V3.64H83v7.61Z"/><path class="cls-5" d="M85.76,3.66V5a3,3,0,0,1,2.71-1.49A3.17,3.17,0,0,1,91.9,6.87v4.38h-.76V6.88a2.42,2.42,0,0,0-2.7-2.62A2.63,2.63,0,0,0,85.78,7v4.23H85V3.66Z"/><path class="cls-5" d="M94.87,1.18a.61.61,0,0,1-1.22,0A.61.61,0,0,1,94.87,1.18Zm-1,2.45v7.62h.75V3.63Z"/><path class="cls-5" d="M98.51,1.37V3.66h2.58v.63H98.51V8.91c0,1,.21,1.75,1.4,1.75a2.9,2.9,0,0,0,1.17-.3l.26.61a3.38,3.38,0,0,1-1.43.39c-1.62,0-2.14-1-2.14-2.45V4.29H96.16V3.66h1.61V1.44Z"/><path class="cls-5" d="M109.48,3.66l-4.62,10.76h-.8l1.4-3.26-3-7.5h.82L105,8.14l.89,2.2.87-2.21,1.91-4.47Z"/><path class="cls-5" d="M119.6,11.64V7.29h-5.28v4.35h-2V.88h2V5.42h5.28V.88h2V11.64Z"/><path class="cls-5" d="M125,8.51a2,2,0,0,0,2.26,1.61,3.09,3.09,0,0,0,2-.71l1.2,1.19a4.65,4.65,0,0,1-3.26,1.23,3.82,3.82,0,0,1-4.16-4,3.79,3.79,0,0,1,4-4c2.54,0,4.12,1.56,3.83,4.69ZM129.1,7a1.73,1.73,0,0,0-2-1.47A2,2,0,0,0,125,7Z"/><path class="cls-5" d="M138.36,4.05h1.8v7.58h-1.77l-.09-1.11a2.9,2.9,0,0,1-2.46,1.34,3.67,3.67,0,0,1-3.91-4,3.7,3.7,0,0,1,3.95-4,2.79,2.79,0,0,1,2.42,1.23Zm-4.55,3.78a2.17,2.17,0,0,0,2.24,2.3c2.95,0,2.95-4.59,0-4.59A2.15,2.15,0,0,0,133.81,7.83Z"/><path class="cls-5" d="M143.6.88V11.63h-1.86V.88Z"/><path class="cls-5" d="M147.89,1.91V4.06H150V5.68h-2.11V9a1,1,0,0,0,1,1.08,2.31,2.31,0,0,0,.91-.23l.52,1.59a4.23,4.23,0,0,1-1.55.33A2.46,2.46,0,0,1,146,9V5.68H144.6V4.06H146V2.11Z"/><path class="cls-5" d="M153.25.87V5.08a2.8,2.8,0,0,1,2.37-1.14c2.15,0,3.11,1.46,3.11,3.69v4h-1.88v-4c0-1.38-.72-2-1.72-2a1.94,1.94,0,0,0-1.88,2.07v3.88h-1.87V.87Z"/><path class="cls-6" d="M32.89,18.75h-.67l-.53-1.32-.45-1.32-.44,1.33-.51,1.31h-.68l-1.55-4.19H29l1,3,1-3h.52l1,3,1-3h.9Z"/><path class="cls-6" d="M41.69,18.75H38.52V14.56h3.17v.76H39.31v1H41.6V17H39.31V18h2.38Z"/><path class="cls-6" d="M48.67,15.57a1.2,1.2,0,0,0-1-.47c-.59,0-.88.25-.88.56s.44.47,1,.53c.88.1,1.7.33,1.7,1.33s-.83,1.33-1.78,1.33a1.75,1.75,0,0,1-1.84-1l.66-.34a1.22,1.22,0,0,0,1.19.67c.51,0,1-.18,1-.63s-.42-.56-1-.62c-.87-.1-1.66-.33-1.66-1.26s.85-1.22,1.63-1.22a1.72,1.72,0,0,1,1.67.83Z"/><path class="cls-6" d="M54.78,15.28H53.44v-.72h3.48v.72H55.58v3.47h-.8Z"/><path class="cls-6" d="M66.68,14.56V18h2.17v.73h-3V14.56Z"/><path class="cls-6" d="M77.08,16.68a2.18,2.18,0,0,1-4.35,0,2.18,2.18,0,1,1,4.35,0Zm-3.57,0a1.35,1.35,0,0,0,1.4,1.43,1.33,1.33,0,0,0,1.38-1.43,1.36,1.36,0,0,0-1.38-1.5A1.38,1.38,0,0,0,73.51,16.69Z"/><path class="cls-6" d="M84.07,14.55h.8v4.2h-.5l-2.22-2.83v2.83h-.8V14.56H82l2.07,2.6Z"/><path class="cls-6" d="M93,16.62a2,2,0,0,1-2.11,2.13H89.17V14.56h1.67A2,2,0,0,1,93,16.62ZM90,18h.87a1.25,1.25,0,0,0,1.32-1.38,1.25,1.25,0,0,0-1.32-1.3H90Z"/><path class="cls-6" d="M101.33,16.68a2.18,2.18,0,0,1-4.35,0,2.18,2.18,0,1,1,4.35,0Zm-3.56,0a1.39,1.39,0,1,0,2.77,0,1.39,1.39,0,1,0-2.77,0Z"/><path class="cls-6" d="M108.32,14.55h.8v4.2h-.5l-2.22-2.83v2.83h-.8V14.56h.65l2.07,2.6Z"/></svg>